<svg id="Layer_1" enable-background="new 0 0 512 512" height="512" viewBox="0 0 512 512" width="512" xmlns="http://www.w3.org/2000/svg"><g><path d="m275.248.261c-4.001-1.08-8.116 1.288-9.194 5.288l-17.29 64.091c-1.079 3.999 1.289 8.115 5.288 9.194.654.177 1.312.261 1.958.261 3.307 0 6.334-2.203 7.236-5.549l17.29-64.091c1.079-3.999-1.289-8.115-5.288-9.194z" fill="#ed2061"/><path d="m416.315 137.421-5.34 61.67-30.53 121.59 9.48 121.59-2.87 33.15c-1.9 20.87-19.1 36.58-40.01 36.58h-182.08c-20.91 0-38.11-15.71-40-36.55l-2.42-27.9-26.84-310.129c-.18-2.09.52-4.17 1.94-5.71 1.42-1.55 3.43-2.44 5.53-2.44h305.66c2.11 0 4.11.89 5.53 2.44 1.42 1.539 2.13 3.619 1.95 5.709z" fill="#ed2061"/><path d="m416.315 137.421-5.34 61.67-30.53 121.59 9.48 121.59-2.87 33.15c-1.9 20.87-19.1 36.58-40.01 36.58h-182.08c-20.91 0-38.11-15.71-40-36.55l-2.42-27.9c2.85 19.79 20.09 34.45 40.29 34.45h157.08c20.91 0 38.11-15.71 40.01-36.58l27.37-316.149h21.54c2.11 0 4.11.89 5.53 2.44 1.42 1.539 2.13 3.619 1.95 5.709z" fill="#c71e54"/><path d="m419.975 114.311h-327.94l14.41-35.55c3.61-8.9 12.16-14.66 21.77-14.66l225.58-.01h30.05c9.59.02 18.11 5.78 21.71 14.66z" fill="#b9cfdf"/><path d="m419.975 114.311h-30l-14.42-35.56c-3.6-8.88-12.12-14.64-21.71-14.66h30c9.59.02 18.11 5.78 21.71 14.66z" fill="#90abbd"/><path d="m440.305 121.791c0 12.4-10.08 22.49-22.48 22.49h-323.64c-12.4 0-22.49-10.09-22.49-22.49s10.09-22.48 22.49-22.48h323.64c12.4 0 22.48 10.08 22.48 22.48z" fill="#56788b"/><path d="m440.305 121.791c0 12.4-10.08 22.49-22.48 22.49h-30c12.4 0 22.48-10.09 22.48-22.49s-10.08-22.48-22.48-22.48h30c12.4 0 22.48 10.08 22.48 22.48z" fill="#415e6f"/><path d="m410.975 199.091-21.05 243.18h-185.91c-14.57 0-26.52-10.94-27.79-25.45l-16.42-187.4c-.69-7.77 1.95-15.52 7.22-21.28 5.26-5.75 12.76-9.05 20.56-9.05z" fill="#f9d11f"/><path d="m410.975 199.091-21.05 243.179h-29.73l21.05-243.179z" fill="#ffa402"/><circle cx="286.992" cy="320.684" fill="#eef0f5" r="54.255"/></g></svg>